<mxfile host="Electron" modified="2025-07-02T19:42:39.376Z" agent="Mozilla/5.0 (X11; Linux x86_64) AppleWebKit/537.36 (KHTML, like Gecko) draw.io/22.0.3 Chrome/114.0.5735.289 Electron/25.8.4 Safari/537.36" etag="kGINXMW4pmbN8HuqVdB2" version="22.0.3" type="device" pages="2">
  <diagram id="nlweb-normal-flow" name="NLWeb Normal Flow">
    <mxGraphModel dx="1050" dy="2184" grid="1" gridSize="10" guides="1" tooltips="1" connect="1" arrows="1" fold="1" page="1" pageScale="1" pageWidth="800" pageHeight="1600" math="0" shadow="0">
      <root>
        <mxCell id="0" />
        <mxCell id="1" parent="0" />
        <mxCell id="kLJmoWU07WLSpJIlC0Pa-27" style="edgeStyle=orthogonalEdgeStyle;rounded=0;orthogonalLoop=1;jettySize=auto;html=1;" parent="1" source="WudlPiiB4zxIJNJ_j9WW-81" target="yt-xcJ3E6Udejd9taE-z-55" edge="1">
          <mxGeometry relative="1" as="geometry" />
        </mxCell>
        <mxCell id="WudlPiiB4zxIJNJ_j9WW-81" value="&lt;div style=&quot;&quot;&gt;&lt;ul&gt;&lt;li&gt;&lt;span style=&quot;background-color: initial;&quot;&gt;Parallel processes for each Db&lt;/span&gt;&lt;/li&gt;&lt;li&gt;&lt;span style=&quot;background-color: initial;&quot;&gt;Allows query specifc caching&lt;/span&gt;&lt;/li&gt;&lt;li&gt;Pre-Processe the prompt into a query each&amp;nbsp; database. Key: Database name&lt;/li&gt;&lt;/ul&gt;&lt;/div&gt;" style="rounded=1;whiteSpace=wrap;html=1;labelPosition=center;verticalLabelPosition=middle;align=left;verticalAlign=middle;" parent="1" vertex="1">
          <mxGeometry x="680" y="939.7099999999999" width="270" height="61.32" as="geometry" />
        </mxCell>
        <mxCell id="WudlPiiB4zxIJNJ_j9WW-80" style="edgeStyle=orthogonalEdgeStyle;rounded=0;orthogonalLoop=1;jettySize=auto;html=1;" parent="1" source="WudlPiiB4zxIJNJ_j9WW-70" target="WudlPiiB4zxIJNJ_j9WW-30" edge="1">
          <mxGeometry relative="1" as="geometry" />
        </mxCell>
        <mxCell id="WudlPiiB4zxIJNJ_j9WW-70" value="&lt;ul&gt;&lt;li&gt;&lt;span style=&quot;background-color: initial;&quot;&gt;Decontextualizers&lt;/span&gt;&lt;/li&gt;&lt;li style=&quot;border-color: var(--border-color);&quot;&gt;Chucking: Split a query into smaller more preceise answer pieces by creating smaller queries.&lt;/li&gt;&lt;li style=&quot;border-color: var(--border-color);&quot;&gt;Entity Extractors/Mappers (extract details of the prompt to schema.org or enterprise specific properties)&lt;/li&gt;&lt;/ul&gt;Sequential. Output of one leads to input of the next. Outcome can be multiple queries. Can be realized with llm calls or code logic." style="rounded=1;whiteSpace=wrap;html=1;labelPosition=center;verticalLabelPosition=middle;align=left;verticalAlign=middle;spacingLeft=11;" parent="1" vertex="1">
          <mxGeometry x="678.13" y="410" width="265" height="170" as="geometry" />
        </mxCell>
        <mxCell id="yt-xcJ3E6Udejd9taE-z-49" style="edgeStyle=orthogonalEdgeStyle;rounded=0;orthogonalLoop=1;jettySize=auto;html=1;" parent="1" source="WudlPiiB4zxIJNJ_j9WW-68" target="1F_m20Y1RgCCUI9NS1xm-30" edge="1">
          <mxGeometry relative="1" as="geometry" />
        </mxCell>
        <mxCell id="WudlPiiB4zxIJNJ_j9WW-68" value="&lt;ul&gt;&lt;li style=&quot;&quot;&gt;Logging user prompts&lt;/li&gt;&lt;li style=&quot;&quot;&gt;By default all interceptors are executed in parallel&lt;/li&gt;&lt;li style=&quot;&quot;&gt;Each interceptor modifies or enriches the query document and all&amp;nbsp;&lt;/li&gt;&lt;li style=&quot;&quot;&gt;All intercepts results are combined in a key value style query document&lt;/li&gt;&lt;li style=&quot;&quot;&gt;Examples for such interceptors are the adding of user context or similar&lt;/li&gt;&lt;/ul&gt;" style="rounded=1;whiteSpace=wrap;html=1;labelPosition=center;verticalLabelPosition=middle;align=left;verticalAlign=middle;" parent="1" vertex="1">
          <mxGeometry x="680" y="140" width="265" height="140" as="geometry" />
        </mxCell>
        <mxCell id="WudlPiiB4zxIJNJ_j9WW-29" style="edgeStyle=orthogonalEdgeStyle;rounded=0;orthogonalLoop=1;jettySize=auto;html=1;" parent="1" source="2" target="WudlPiiB4zxIJNJ_j9WW-27" edge="1">
          <mxGeometry relative="1" as="geometry" />
        </mxCell>
        <mxCell id="2" value="1. Query Received HTTP: POST Input: JSON query, prev" style="rounded=0;whiteSpace=wrap;html=1;fillColor=none;strokeColor=default;fontSize=12;" parent="1" tooltip="Receives HTTP POST to /ask endpoint in ask.py. Parses JSON query (e.g., &#39;Find vegetarian recipes for Diwali&#39;) and prev (e.g., &#39;What are some Indian festival recipes?&#39;). Loads site_type.xml for recipe_website context. No API calls, sequential." vertex="1">
          <mxGeometry x="280.5" y="-70" width="240" height="60" as="geometry" />
        </mxCell>
        <mxCell id="27" value="15. Return Response&amp;nbsp;" style="rounded=0;whiteSpace=wrap;html=1;fillColor=none;strokeColor=default;fontSize=12;" parent="1" tooltip="Formats results (or summarized output if mode=summarize) as Schema.org Recipe JSON (e.g., {&#39;@type&#39;: &#39;Recipe&#39;, &#39;name&#39;: &#39;Vegetarian Diwali Samosas&#39;}) in ask.py. Streams to client if streaming=true. Sequential, final step." vertex="1">
          <mxGeometry x="300" y="1810" width="200" height="60" as="geometry" />
        </mxCell>
        <mxCell id="WudlPiiB4zxIJNJ_j9WW-32" style="edgeStyle=orthogonalEdgeStyle;rounded=0;orthogonalLoop=1;jettySize=auto;html=1;" parent="1" source="WudlPiiB4zxIJNJ_j9WW-27" target="WudlPiiB4zxIJNJ_j9WW-31" edge="1">
          <mxGeometry relative="1" as="geometry" />
        </mxCell>
        <mxCell id="WudlPiiB4zxIJNJ_j9WW-27" value="2. Prompt interceptors" style="ellipse;whiteSpace=wrap;html=1;aspect=fixed;" parent="1" vertex="1">
          <mxGeometry x="350" y="160" width="100" height="100" as="geometry" />
        </mxCell>
        <mxCell id="WudlPiiB4zxIJNJ_j9WW-30" value="4.&lt;br&gt;Prompt refiners" style="ellipse;whiteSpace=wrap;html=1;aspect=fixed;" parent="1" vertex="1">
          <mxGeometry x="345" y="440" width="110" height="110" as="geometry" />
        </mxCell>
        <mxCell id="WudlPiiB4zxIJNJ_j9WW-33" style="edgeStyle=orthogonalEdgeStyle;rounded=0;orthogonalLoop=1;jettySize=auto;html=1;" parent="1" source="WudlPiiB4zxIJNJ_j9WW-31" target="WudlPiiB4zxIJNJ_j9WW-30" edge="1">
          <mxGeometry relative="1" as="geometry" />
        </mxCell>
        <mxCell id="WudlPiiB4zxIJNJ_j9WW-31" value="3. Enriched contextualized query with potential filters" style="shape=document;whiteSpace=wrap;html=1;boundedLbl=1;" parent="1" vertex="1">
          <mxGeometry x="320" y="330" width="160" height="40" as="geometry" />
        </mxCell>
        <mxCell id="yt-xcJ3E6Udejd9taE-z-35" style="edgeStyle=orthogonalEdgeStyle;rounded=0;orthogonalLoop=1;jettySize=auto;html=1;" parent="1" source="WudlPiiB4zxIJNJ_j9WW-38" target="yt-xcJ3E6Udejd9taE-z-34" edge="1">
          <mxGeometry relative="1" as="geometry" />
        </mxCell>
        <mxCell id="WudlPiiB4zxIJNJ_j9WW-52" value="DB search preparation" style="ellipse;whiteSpace=wrap;html=1;aspect=fixed;" parent="1" vertex="1">
          <mxGeometry x="335.5" y="924.12" width="110" height="110" as="geometry" />
        </mxCell>
        <mxCell id="WudlPiiB4zxIJNJ_j9WW-73" style="edgeStyle=orthogonalEdgeStyle;rounded=0;orthogonalLoop=1;jettySize=auto;html=1;" parent="1" source="WudlPiiB4zxIJNJ_j9WW-55" target="WudlPiiB4zxIJNJ_j9WW-57" edge="1">
          <mxGeometry relative="1" as="geometry" />
        </mxCell>
        <mxCell id="G2ewzJz-Viy7OVQ3748r-27" style="edgeStyle=orthogonalEdgeStyle;rounded=0;orthogonalLoop=1;jettySize=auto;html=1;" parent="1" source="WudlPiiB4zxIJNJ_j9WW-60" target="WudlPiiB4zxIJNJ_j9WW-61" edge="1">
          <mxGeometry relative="1" as="geometry" />
        </mxCell>
        <mxCell id="WudlPiiB4zxIJNJ_j9WW-78" style="edgeStyle=orthogonalEdgeStyle;rounded=0;orthogonalLoop=1;jettySize=auto;html=1;" parent="1" source="WudlPiiB4zxIJNJ_j9WW-61" target="WudlPiiB4zxIJNJ_j9WW-62" edge="1">
          <mxGeometry relative="1" as="geometry" />
        </mxCell>
        <mxCell id="WudlPiiB4zxIJNJ_j9WW-61" value="12. merged result" style="shape=document;whiteSpace=wrap;html=1;boundedLbl=1;" parent="1" vertex="1">
          <mxGeometry x="320" y="1419.75" width="160" height="30.25" as="geometry" />
        </mxCell>
        <mxCell id="WudlPiiB4zxIJNJ_j9WW-108" style="edgeStyle=orthogonalEdgeStyle;rounded=0;orthogonalLoop=1;jettySize=auto;html=1;" parent="1" source="WudlPiiB4zxIJNJ_j9WW-62" target="WudlPiiB4zxIJNJ_j9WW-79" edge="1">
          <mxGeometry relative="1" as="geometry" />
        </mxCell>
        <mxCell id="WudlPiiB4zxIJNJ_j9WW-62" value="13.&lt;br&gt;result post processing extension point" style="ellipse;whiteSpace=wrap;html=1;aspect=fixed;" parent="1" vertex="1">
          <mxGeometry x="345.5" y="1490" width="110" height="110" as="geometry" />
        </mxCell>
        <mxCell id="WudlPiiB4zxIJNJ_j9WW-66" value="" style="ellipse;whiteSpace=wrap;html=1;align=center;aspect=fixed;fillColor=none;strokeColor=none;resizable=0;perimeter=centerPerimeter;rotatable=0;allowArrows=0;points=[];outlineConnect=1;" parent="1" vertex="1">
          <mxGeometry x="470" y="210" width="10" height="10" as="geometry" />
        </mxCell>
        <mxCell id="WudlPiiB4zxIJNJ_j9WW-109" style="edgeStyle=orthogonalEdgeStyle;rounded=0;orthogonalLoop=1;jettySize=auto;html=1;" parent="1" source="WudlPiiB4zxIJNJ_j9WW-79" target="27" edge="1">
          <mxGeometry relative="1" as="geometry" />
        </mxCell>
        <mxCell id="WudlPiiB4zxIJNJ_j9WW-79" value="14.&lt;br&gt;Ready result extension point" style="ellipse;whiteSpace=wrap;html=1;aspect=fixed;" parent="1" vertex="1">
          <mxGeometry x="345.5" y="1640" width="110" height="110" as="geometry" />
        </mxCell>
        <mxCell id="WudlPiiB4zxIJNJ_j9WW-96" style="edgeStyle=orthogonalEdgeStyle;rounded=0;orthogonalLoop=1;jettySize=auto;html=1;entryX=1;entryY=0.5;entryDx=0;entryDy=0;" parent="1" source="WudlPiiB4zxIJNJ_j9WW-83" target="kLJmoWU07WLSpJIlC0Pa-28" edge="1">
          <mxGeometry relative="1" as="geometry" />
        </mxCell>
        <mxCell id="WudlPiiB4zxIJNJ_j9WW-83" value="&lt;ul&gt;&lt;li&gt;Result processors for each database.&lt;/li&gt;&lt;li&gt;Database specifc cache population&lt;/li&gt;&lt;/ul&gt;At the end all results are joined in one document." style="rounded=1;whiteSpace=wrap;html=1;labelPosition=center;verticalLabelPosition=middle;align=left;verticalAlign=middle;" parent="1" vertex="1">
          <mxGeometry x="680" y="1288.13" width="270" height="73.75" as="geometry" />
        </mxCell>
        <mxCell id="WudlPiiB4zxIJNJ_j9WW-102" style="edgeStyle=orthogonalEdgeStyle;rounded=0;orthogonalLoop=1;jettySize=auto;html=1;entryX=1;entryY=0.5;entryDx=0;entryDy=0;" parent="1" source="WudlPiiB4zxIJNJ_j9WW-86" target="WudlPiiB4zxIJNJ_j9WW-62" edge="1">
          <mxGeometry relative="1" as="geometry" />
        </mxCell>
        <mxCell id="WudlPiiB4zxIJNJ_j9WW-86" value="&lt;ul&gt;&lt;li&gt;Complete result of all databases can be merged or modified (e.g. with an LLM).&lt;/li&gt;&lt;li&gt;Potential reasoning&lt;/li&gt;&lt;/ul&gt;" style="rounded=1;whiteSpace=wrap;html=1;labelPosition=center;verticalLabelPosition=middle;align=left;verticalAlign=middle;" parent="1" vertex="1">
          <mxGeometry x="675.63" y="1508.13" width="270" height="73.75" as="geometry" />
        </mxCell>
        <mxCell id="WudlPiiB4zxIJNJ_j9WW-112" style="edgeStyle=orthogonalEdgeStyle;rounded=0;orthogonalLoop=1;jettySize=auto;html=1;" parent="1" source="WudlPiiB4zxIJNJ_j9WW-87" target="WudlPiiB4zxIJNJ_j9WW-79" edge="1">
          <mxGeometry relative="1" as="geometry" />
        </mxCell>
        <mxCell id="WudlPiiB4zxIJNJ_j9WW-87" value="&lt;ul&gt;&lt;li style=&quot;border-color: var(--border-color);&quot;&gt;Potential recontextualization&lt;/li&gt;&lt;li&gt;Allows caching or result delivery via other channels&lt;/li&gt;&lt;/ul&gt;" style="rounded=1;whiteSpace=wrap;html=1;labelPosition=center;verticalLabelPosition=middle;align=left;verticalAlign=middle;" parent="1" vertex="1">
          <mxGeometry x="680" y="1670" width="270" height="50" as="geometry" />
        </mxCell>
        <mxCell id="Ze3VE96eDx-Dadxr9pAB-30" style="edgeStyle=orthogonalEdgeStyle;rounded=0;orthogonalLoop=1;jettySize=auto;html=1;" parent="1" source="1F_m20Y1RgCCUI9NS1xm-30" target="WudlPiiB4zxIJNJ_j9WW-27" edge="1">
          <mxGeometry relative="1" as="geometry" />
        </mxCell>
        <mxCell id="1F_m20Y1RgCCUI9NS1xm-30" value="2.c.&lt;br&gt;Enrichment interceptors" style="ellipse;whiteSpace=wrap;html=1;aspect=fixed;" parent="1" vertex="1">
          <mxGeometry x="515" y="160" width="70" height="70" as="geometry" />
        </mxCell>
        <mxCell id="Ze3VE96eDx-Dadxr9pAB-28" style="edgeStyle=orthogonalEdgeStyle;rounded=0;orthogonalLoop=1;jettySize=auto;html=1;entryX=1;entryY=0.5;entryDx=0;entryDy=0;" parent="1" source="1F_m20Y1RgCCUI9NS1xm-29" target="WudlPiiB4zxIJNJ_j9WW-27" edge="1">
          <mxGeometry relative="1" as="geometry" />
        </mxCell>
        <mxCell id="1F_m20Y1RgCCUI9NS1xm-29" value="2.a&lt;br&gt;Blocking interceptors" style="ellipse;whiteSpace=wrap;html=1;aspect=fixed;" parent="1" vertex="1">
          <mxGeometry x="515" y="20" width="70" height="70" as="geometry" />
        </mxCell>
        <mxCell id="Ze3VE96eDx-Dadxr9pAB-29" style="edgeStyle=orthogonalEdgeStyle;rounded=0;orthogonalLoop=1;jettySize=auto;html=1;" parent="1" source="1F_m20Y1RgCCUI9NS1xm-34" target="WudlPiiB4zxIJNJ_j9WW-27" edge="1">
          <mxGeometry relative="1" as="geometry">
            <mxPoint x="500" y="200" as="targetPoint" />
          </mxGeometry>
        </mxCell>
        <mxCell id="1F_m20Y1RgCCUI9NS1xm-34" value="2.b.Fast process interceptors" style="ellipse;whiteSpace=wrap;html=1;aspect=fixed;" parent="1" vertex="1">
          <mxGeometry x="515" y="90" width="70" height="70" as="geometry" />
        </mxCell>
        <mxCell id="1F_m20Y1RgCCUI9NS1xm-36" style="edgeStyle=orthogonalEdgeStyle;rounded=0;orthogonalLoop=1;jettySize=auto;html=1;entryX=1;entryY=0.5;entryDx=0;entryDy=0;" parent="1" source="1F_m20Y1RgCCUI9NS1xm-35" target="1F_m20Y1RgCCUI9NS1xm-29" edge="1">
          <mxGeometry relative="1" as="geometry" />
        </mxCell>
        <mxCell id="1F_m20Y1RgCCUI9NS1xm-35" value="&lt;ul&gt;&lt;li style=&quot;&quot;&gt;Used to determine if the process is continued&lt;/li&gt;&lt;li style=&quot;&quot;&gt;All need to vote yes&lt;/li&gt;&lt;li style=&quot;&quot;&gt;Example are the substractions of tokens, free questions before registration is demanded, access control, context control&lt;/li&gt;&lt;/ul&gt;" style="rounded=1;whiteSpace=wrap;html=1;labelPosition=center;verticalLabelPosition=middle;align=left;verticalAlign=middle;" parent="1" vertex="1">
          <mxGeometry x="680" y="-70" width="260" height="120" as="geometry" />
        </mxCell>
        <mxCell id="1F_m20Y1RgCCUI9NS1xm-39" value="&lt;ul&gt;&lt;li style=&quot;&quot;&gt;Fast process interceptors are executed first and fork a new process that might be terminated later&lt;/li&gt;&lt;li style=&quot;&quot;&gt;Caching interceptors by similar query determination&lt;/li&gt;&lt;/ul&gt;" style="rounded=1;whiteSpace=wrap;html=1;labelPosition=center;verticalLabelPosition=middle;align=left;verticalAlign=middle;" parent="1" vertex="1">
          <mxGeometry x="680" y="50" width="260" height="90" as="geometry" />
        </mxCell>
        <mxCell id="yt-xcJ3E6Udejd9taE-z-31" value="I. Text and&amp;nbsp; interaction level" style="text;html=1;strokeColor=none;fillColor=none;align=center;verticalAlign=middle;whiteSpace=wrap;rounded=0;" parent="1" vertex="1">
          <mxGeometry x="240" y="50" width="60" height="30" as="geometry" />
        </mxCell>
        <mxCell id="yt-xcJ3E6Udejd9taE-z-32" value="I.a. interaction context" style="text;html=1;strokeColor=none;fillColor=none;align=center;verticalAlign=middle;whiteSpace=wrap;rounded=0;" parent="1" vertex="1">
          <mxGeometry x="275.5" y="430" width="60" height="30" as="geometry" />
        </mxCell>
        <mxCell id="yt-xcJ3E6Udejd9taE-z-45" style="edgeStyle=orthogonalEdgeStyle;rounded=0;orthogonalLoop=1;jettySize=auto;html=1;" parent="1" source="yt-xcJ3E6Udejd9taE-z-34" target="yt-xcJ3E6Udejd9taE-z-44" edge="1">
          <mxGeometry relative="1" as="geometry" />
        </mxCell>
        <mxCell id="yt-xcJ3E6Udejd9taE-z-34" value="6.&lt;br&gt;Target DB matching/routing" style="ellipse;whiteSpace=wrap;html=1;aspect=fixed;" parent="1" vertex="1">
          <mxGeometry x="348" y="690" width="105" height="105" as="geometry" />
        </mxCell>
        <mxCell id="yt-xcJ3E6Udejd9taE-z-48" style="edgeStyle=orthogonalEdgeStyle;rounded=0;orthogonalLoop=1;jettySize=auto;html=1;" parent="1" source="yt-xcJ3E6Udejd9taE-z-37" target="yt-xcJ3E6Udejd9taE-z-34" edge="1">
          <mxGeometry relative="1" as="geometry">
            <Array as="points">
              <mxPoint x="620" y="743" />
              <mxPoint x="620" y="743" />
            </Array>
          </mxGeometry>
        </mxCell>
        <mxCell id="yt-xcJ3E6Udejd9taE-z-37" value="&lt;ul&gt;&lt;li&gt;Matches the query context with the metadatada of different databases and then selects which databases are the right query target. E.g. detecting which databases could be the foundation for a query.&lt;/li&gt;&lt;li&gt;Can be done with an LLM call or metadata matching from the prior extracted Schema.org or enterprise properties.&lt;/li&gt;&lt;li&gt;Outcome are (possibily enriched) database specifc prompts that can be executed in&amp;nbsp;parallel.&lt;/li&gt;&lt;li&gt;Sequential&lt;/li&gt;&lt;/ul&gt;" style="rounded=1;whiteSpace=wrap;html=1;labelPosition=center;verticalLabelPosition=middle;align=left;verticalAlign=middle;" parent="1" vertex="1">
          <mxGeometry x="677.5" y="650" width="270" height="188.75" as="geometry" />
        </mxCell>
        <mxCell id="yt-xcJ3E6Udejd9taE-z-40" value="II. Data Logic Level&amp;nbsp;" style="text;html=1;strokeColor=none;fillColor=none;align=center;verticalAlign=middle;whiteSpace=wrap;rounded=0;" parent="1" vertex="1">
          <mxGeometry x="220.5" y="660" width="60" height="30" as="geometry" />
        </mxCell>
        <mxCell id="yt-xcJ3E6Udejd9taE-z-41" value="II.a. Content retrival&amp;nbsp;" style="text;html=1;strokeColor=none;fillColor=none;align=center;verticalAlign=middle;whiteSpace=wrap;rounded=0;" parent="1" vertex="1">
          <mxGeometry x="270" y="909.71" width="60" height="30" as="geometry" />
        </mxCell>
        <mxCell id="yt-xcJ3E6Udejd9taE-z-42" value="II.b. Result recomposition&lt;br&gt;and&amp;nbsp;&lt;br&gt;reasoning" style="text;html=1;strokeColor=none;fillColor=none;align=center;verticalAlign=middle;whiteSpace=wrap;rounded=0;" parent="1" vertex="1">
          <mxGeometry x="288" y="1478.13" width="60" height="30" as="geometry" />
        </mxCell>
        <mxCell id="yt-xcJ3E6Udejd9taE-z-43" value="&lt;br&gt;I.c. Interaction &lt;br&gt;presentation and refinement" style="text;html=1;strokeColor=none;fillColor=none;align=center;verticalAlign=middle;whiteSpace=wrap;rounded=0;" parent="1" vertex="1">
          <mxGeometry x="275.5" y="1640" width="60" height="30" as="geometry" />
        </mxCell>
        <mxCell id="yt-xcJ3E6Udejd9taE-z-46" style="edgeStyle=orthogonalEdgeStyle;rounded=0;orthogonalLoop=1;jettySize=auto;html=1;entryX=0.5;entryY=0;entryDx=0;entryDy=0;" parent="1" source="yt-xcJ3E6Udejd9taE-z-44" target="yt-xcJ3E6Udejd9taE-z-55" edge="1">
          <mxGeometry relative="1" as="geometry" />
        </mxCell>
        <mxCell id="yt-xcJ3E6Udejd9taE-z-51" style="edgeStyle=orthogonalEdgeStyle;rounded=0;orthogonalLoop=1;jettySize=auto;html=1;entryX=0.455;entryY=-0.013;entryDx=0;entryDy=0;entryPerimeter=0;movable=0;resizable=0;rotatable=0;deletable=0;editable=0;locked=1;connectable=0;" parent="1" source="WudlPiiB4zxIJNJ_j9WW-30" target="yt-xcJ3E6Udejd9taE-z-50" edge="1">
          <mxGeometry relative="1" as="geometry" />
        </mxCell>
        <mxCell id="yt-xcJ3E6Udejd9taE-z-52" value="" style="group" parent="1" vertex="1" connectable="0">
          <mxGeometry x="280" y="580" width="250" height="60" as="geometry" />
        </mxCell>
        <mxCell id="WudlPiiB4zxIJNJ_j9WW-38" value="Queries decontextualized" style="shape=document;whiteSpace=wrap;html=1;boundedLbl=1;movable=1;resizable=1;rotatable=1;deletable=1;editable=1;locked=0;connectable=1;" parent="yt-xcJ3E6Udejd9taE-z-52" vertex="1">
          <mxGeometry y="10" width="240" height="40" as="geometry" />
        </mxCell>
        <mxCell id="yt-xcJ3E6Udejd9taE-z-50" value="5. Queries decontextualized" style="shape=document;whiteSpace=wrap;html=1;boundedLbl=1;movable=1;resizable=1;rotatable=1;deletable=1;editable=1;locked=0;connectable=1;" parent="yt-xcJ3E6Udejd9taE-z-52" vertex="1">
          <mxGeometry x="10" width="240" height="40" as="geometry" />
        </mxCell>
        <mxCell id="yt-xcJ3E6Udejd9taE-z-54" value="" style="group" parent="1" vertex="1" connectable="0">
          <mxGeometry x="280.5" y="820" width="250" height="40" as="geometry" />
        </mxCell>
        <mxCell id="yt-xcJ3E6Udejd9taE-z-44" value="" style="shape=document;whiteSpace=wrap;html=1;boundedLbl=1;" parent="yt-xcJ3E6Udejd9taE-z-54" vertex="1">
          <mxGeometry width="240" height="32" as="geometry" />
        </mxCell>
        <mxCell id="yt-xcJ3E6Udejd9taE-z-53" value="7. DB specific prompts" style="shape=document;whiteSpace=wrap;html=1;boundedLbl=1;" parent="yt-xcJ3E6Udejd9taE-z-54" vertex="1">
          <mxGeometry x="10" y="8" width="240" height="32" as="geometry" />
        </mxCell>
        <mxCell id="yt-xcJ3E6Udejd9taE-z-55" value="8.&lt;br&gt;DB search preparation" style="ellipse;whiteSpace=wrap;html=1;aspect=fixed;" parent="1" vertex="1">
          <mxGeometry x="345" y="915.37" width="110" height="110" as="geometry" />
        </mxCell>
        <mxCell id="kLJmoWU07WLSpJIlC0Pa-29" value="" style="group" parent="1" vertex="1" connectable="0">
          <mxGeometry x="345.5" y="1253.75" width="119.5" height="122.5" as="geometry" />
        </mxCell>
        <mxCell id="WudlPiiB4zxIJNJ_j9WW-60" value="" style="ellipse;whiteSpace=wrap;html=1;aspect=fixed;" parent="kLJmoWU07WLSpJIlC0Pa-29" vertex="1">
          <mxGeometry y="28.75" width="110" height="110" as="geometry" />
        </mxCell>
        <mxCell id="kLJmoWU07WLSpJIlC0Pa-28" value="11.&lt;br&gt;Result post processing extension point" style="ellipse;whiteSpace=wrap;html=1;aspect=fixed;" parent="kLJmoWU07WLSpJIlC0Pa-29" vertex="1">
          <mxGeometry x="9.5" y="16.25" width="110" height="110" as="geometry" />
        </mxCell>
        <mxCell id="kLJmoWU07WLSpJIlC0Pa-30" style="edgeStyle=orthogonalEdgeStyle;rounded=0;orthogonalLoop=1;jettySize=auto;html=1;entryX=0.409;entryY=0.022;entryDx=0;entryDy=0;entryPerimeter=0;" parent="1" source="WudlPiiB4zxIJNJ_j9WW-57" target="kLJmoWU07WLSpJIlC0Pa-28" edge="1">
          <mxGeometry relative="1" as="geometry" />
        </mxCell>
        <mxCell id="kLJmoWU07WLSpJIlC0Pa-36" style="edgeStyle=orthogonalEdgeStyle;rounded=0;orthogonalLoop=1;jettySize=auto;html=1;entryX=0.425;entryY=0.052;entryDx=0;entryDy=0;entryPerimeter=0;" parent="1" source="WudlPiiB4zxIJNJ_j9WW-52" target="kLJmoWU07WLSpJIlC0Pa-31" edge="1">
          <mxGeometry relative="1" as="geometry">
            <Array as="points">
              <mxPoint x="400" y="1030" />
              <mxPoint x="400" y="1030" />
            </Array>
          </mxGeometry>
        </mxCell>
        <mxCell id="kLJmoWU07WLSpJIlC0Pa-38" value="" style="group" parent="1" vertex="1" connectable="0">
          <mxGeometry x="300" y="1080" width="215" height="40" as="geometry" />
        </mxCell>
        <mxCell id="WudlPiiB4zxIJNJ_j9WW-55" value="DB queries" style="shape=document;whiteSpace=wrap;html=1;boundedLbl=1;" parent="kLJmoWU07WLSpJIlC0Pa-38" vertex="1">
          <mxGeometry y="6.527196652719665" width="200" height="33.47280334728033" as="geometry" />
        </mxCell>
        <mxCell id="kLJmoWU07WLSpJIlC0Pa-31" value="9. DB queries" style="shape=document;whiteSpace=wrap;html=1;boundedLbl=1;" parent="kLJmoWU07WLSpJIlC0Pa-38" vertex="1">
          <mxGeometry x="15" width="200" height="33.47280334728033" as="geometry" />
        </mxCell>
        <mxCell id="kLJmoWU07WLSpJIlC0Pa-39" value="" style="group" parent="1" vertex="1" connectable="0">
          <mxGeometry x="300" y="1169.75" width="210" height="70" as="geometry" />
        </mxCell>
        <mxCell id="WudlPiiB4zxIJNJ_j9WW-57" value="4.&lt;br&gt;Execute db query (DBs defined as key value)" style="rounded=0;whiteSpace=wrap;html=1;fillColor=default;strokeColor=default;fontSize=12;fontColor=default;" parent="kLJmoWU07WLSpJIlC0Pa-39" tooltip="Sends decontextualized query with memory_items (e.g., suitableForDiet: Vegetarian) to OpenAI embedding API (text-embedding-ada-002) via ask.py. Outputs numerical embedding vector. Sequential after parallel steps." vertex="1">
          <mxGeometry width="200" height="60" as="geometry" />
        </mxCell>
        <mxCell id="kLJmoWU07WLSpJIlC0Pa-37" value="10.&lt;br&gt;Execute db query (DBs defined as key value)" style="rounded=0;whiteSpace=wrap;html=1;fillColor=default;strokeColor=default;fontSize=12;fontColor=default;" parent="kLJmoWU07WLSpJIlC0Pa-39" tooltip="Sends decontextualized query with memory_items (e.g., suitableForDiet: Vegetarian) to OpenAI embedding API (text-embedding-ada-002) via ask.py. Outputs numerical embedding vector. Sequential after parallel steps." vertex="1">
          <mxGeometry x="10" y="10" width="200" height="60" as="geometry" />
        </mxCell>
        <mxCell id="kLJmoWU07WLSpJIlC0Pa-47" value="" style="endArrow=none;dashed=1;html=1;dashPattern=1 3;strokeWidth=2;rounded=0;" parent="1" edge="1">
          <mxGeometry width="50" height="50" relative="1" as="geometry">
            <mxPoint x="280" y="400" as="sourcePoint" />
            <mxPoint x="974.8" y="400" as="targetPoint" />
          </mxGeometry>
        </mxCell>
        <mxCell id="kLJmoWU07WLSpJIlC0Pa-48" value="" style="endArrow=none;dashed=1;html=1;dashPattern=1 3;strokeWidth=2;rounded=0;" parent="1" edge="1">
          <mxGeometry width="50" height="50" relative="1" as="geometry">
            <mxPoint x="210" y="640" as="sourcePoint" />
            <mxPoint x="974.8" y="640" as="targetPoint" />
          </mxGeometry>
        </mxCell>
        <mxCell id="kLJmoWU07WLSpJIlC0Pa-49" value="" style="endArrow=none;dashed=1;html=1;dashPattern=1 3;strokeWidth=2;rounded=0;" parent="1" edge="1">
          <mxGeometry width="50" height="50" relative="1" as="geometry">
            <mxPoint x="280" y="870" as="sourcePoint" />
            <mxPoint x="974.8" y="870" as="targetPoint" />
          </mxGeometry>
        </mxCell>
        <mxCell id="kLJmoWU07WLSpJIlC0Pa-50" value="" style="endArrow=none;dashed=1;html=1;dashPattern=1 3;strokeWidth=2;rounded=0;" parent="1" edge="1">
          <mxGeometry width="50" height="50" relative="1" as="geometry">
            <mxPoint x="280" y="1459" as="sourcePoint" />
            <mxPoint x="950" y="1458.95" as="targetPoint" />
          </mxGeometry>
        </mxCell>
        <mxCell id="kLJmoWU07WLSpJIlC0Pa-51" value="" style="endArrow=none;dashed=1;html=1;dashPattern=1 3;strokeWidth=2;rounded=0;" parent="1" edge="1">
          <mxGeometry width="50" height="50" relative="1" as="geometry">
            <mxPoint x="185.2" y="1610" as="sourcePoint" />
            <mxPoint x="950" y="1610" as="targetPoint" />
          </mxGeometry>
        </mxCell>
        <mxCell id="Ze3VE96eDx-Dadxr9pAB-31" style="edgeStyle=orthogonalEdgeStyle;rounded=0;orthogonalLoop=1;jettySize=auto;html=1;entryX=1;entryY=0.5;entryDx=0;entryDy=0;" parent="1" source="Ze3VE96eDx-Dadxr9pAB-27" target="WudlPiiB4zxIJNJ_j9WW-27" edge="1">
          <mxGeometry relative="1" as="geometry" />
        </mxCell>
        <mxCell id="Ze3VE96eDx-Dadxr9pAB-27" value="2.d.&lt;br&gt;Action Interceptors" style="ellipse;whiteSpace=wrap;html=1;aspect=fixed;" parent="1" vertex="1">
          <mxGeometry x="515" y="230" width="70" height="70" as="geometry" />
        </mxCell>
        <mxCell id="Ze3VE96eDx-Dadxr9pAB-33" style="edgeStyle=orthogonalEdgeStyle;rounded=0;orthogonalLoop=1;jettySize=auto;html=1;" parent="1" source="Ze3VE96eDx-Dadxr9pAB-32" target="Ze3VE96eDx-Dadxr9pAB-27" edge="1">
          <mxGeometry relative="1" as="geometry" />
        </mxCell>
        <mxCell id="Ze3VE96eDx-Dadxr9pAB-32" value="&lt;ul&gt;&lt;li style=&quot;&quot;&gt;Determines actions and classifies them. E.g. search, summarize, book, procure&lt;/li&gt;&lt;li style=&quot;&quot;&gt;Intended actions influence further processing&lt;/li&gt;&lt;/ul&gt;&lt;div&gt;Actions beyond search allow CRUD scenarios&lt;/div&gt;" style="rounded=1;whiteSpace=wrap;html=1;labelPosition=center;verticalLabelPosition=middle;align=left;verticalAlign=middle;" parent="1" vertex="1">
          <mxGeometry x="682.5" y="280" width="265" height="100" as="geometry" />
        </mxCell>
      </root>
    </mxGraphModel>
  </diagram>
  <diagram id="I7oe_v8FR-amH7jxmTqL" name="Ingestion flow">
    <mxGraphModel dx="1290" dy="584" grid="1" gridSize="10" guides="1" tooltips="1" connect="1" arrows="1" fold="1" page="1" pageScale="1" pageWidth="850" pageHeight="1100" math="0" shadow="0">
      <root>
        <mxCell id="0" />
        <mxCell id="1" parent="0" />
        <mxCell id="NWTTXq0qykqu9VjmBLvM-3" style="edgeStyle=orthogonalEdgeStyle;rounded=0;orthogonalLoop=1;jettySize=auto;html=1;" parent="1" source="NWTTXq0qykqu9VjmBLvM-4" target="NWTTXq0qykqu9VjmBLvM-12" edge="1">
          <mxGeometry relative="1" as="geometry" />
        </mxCell>
        <mxCell id="NWTTXq0qykqu9VjmBLvM-4" value="&lt;ul&gt;&lt;li style=&quot;border-color: var(--border-color);&quot;&gt;Enrichments (e.g. filter specification)&lt;/li&gt;&lt;li&gt;Vector embedding generation&lt;/li&gt;&lt;li style=&quot;border-color: var(--border-color);&quot;&gt;Embeddings for other DBs (e.g. graph relations)&lt;/li&gt;&lt;/ul&gt;" style="rounded=1;whiteSpace=wrap;html=1;labelPosition=center;verticalLabelPosition=middle;align=left;verticalAlign=middle;spacingLeft=11;" parent="1" vertex="1">
          <mxGeometry x="678.13" y="450" width="265" height="90" as="geometry" />
        </mxCell>
        <mxCell id="NWTTXq0qykqu9VjmBLvM-7" style="edgeStyle=orthogonalEdgeStyle;rounded=0;orthogonalLoop=1;jettySize=auto;html=1;" parent="1" source="NWTTXq0qykqu9VjmBLvM-8" target="NWTTXq0qykqu9VjmBLvM-11" edge="1">
          <mxGeometry relative="1" as="geometry" />
        </mxCell>
        <mxCell id="NWTTXq0qykqu9VjmBLvM-8" value="1. Source crawling" style="rounded=0;whiteSpace=wrap;html=1;fillColor=none;strokeColor=default;fontSize=12;" parent="1" tooltip="Receives HTTP POST to /ask endpoint in ask.py. Parses JSON query (e.g., &#39;Find vegetarian recipes for Diwali&#39;) and prev (e.g., &#39;What are some Indian festival recipes?&#39;). Loads site_type.xml for recipe_website context. No API calls, sequential." vertex="1">
          <mxGeometry x="280.5" y="30" width="240" height="60" as="geometry" />
        </mxCell>
        <mxCell id="NWTTXq0qykqu9VjmBLvM-10" style="edgeStyle=orthogonalEdgeStyle;rounded=0;orthogonalLoop=1;jettySize=auto;html=1;" parent="1" source="NWTTXq0qykqu9VjmBLvM-11" target="NWTTXq0qykqu9VjmBLvM-14" edge="1">
          <mxGeometry relative="1" as="geometry" />
        </mxCell>
        <mxCell id="NWTTXq0qykqu9VjmBLvM-11" value="2. Data preprocessors" style="ellipse;whiteSpace=wrap;html=1;aspect=fixed;" parent="1" vertex="1">
          <mxGeometry x="350" y="160" width="100" height="100" as="geometry" />
        </mxCell>
        <mxCell id="NWTTXq0qykqu9VjmBLvM-12" value="4.&lt;br&gt;Data embedding" style="ellipse;whiteSpace=wrap;html=1;aspect=fixed;" parent="1" vertex="1">
          <mxGeometry x="345" y="440" width="110" height="110" as="geometry" />
        </mxCell>
        <mxCell id="NWTTXq0qykqu9VjmBLvM-13" style="edgeStyle=orthogonalEdgeStyle;rounded=0;orthogonalLoop=1;jettySize=auto;html=1;" parent="1" source="NWTTXq0qykqu9VjmBLvM-14" target="NWTTXq0qykqu9VjmBLvM-12" edge="1">
          <mxGeometry relative="1" as="geometry" />
        </mxCell>
        <mxCell id="NWTTXq0qykqu9VjmBLvM-14" value="3. Chunked data" style="shape=document;whiteSpace=wrap;html=1;boundedLbl=1;" parent="1" vertex="1">
          <mxGeometry x="320" y="330" width="160" height="40" as="geometry" />
        </mxCell>
        <mxCell id="NWTTXq0qykqu9VjmBLvM-15" style="edgeStyle=orthogonalEdgeStyle;rounded=0;orthogonalLoop=1;jettySize=auto;html=1;" parent="1" source="NWTTXq0qykqu9VjmBLvM-55" target="NWTTXq0qykqu9VjmBLvM-45" edge="1">
          <mxGeometry relative="1" as="geometry" />
        </mxCell>
        <mxCell id="NWTTXq0qykqu9VjmBLvM-23" value="" style="ellipse;whiteSpace=wrap;html=1;align=center;aspect=fixed;fillColor=none;strokeColor=none;resizable=0;perimeter=centerPerimeter;rotatable=0;allowArrows=0;points=[];outlineConnect=1;" parent="1" vertex="1">
          <mxGeometry x="470" y="210" width="10" height="10" as="geometry" />
        </mxCell>
        <mxCell id="NWTTXq0qykqu9VjmBLvM-38" style="edgeStyle=orthogonalEdgeStyle;rounded=0;orthogonalLoop=1;jettySize=auto;html=1;" parent="1" source="NWTTXq0qykqu9VjmBLvM-39" target="NWTTXq0qykqu9VjmBLvM-11" edge="1">
          <mxGeometry relative="1" as="geometry">
            <mxPoint x="585" y="140" as="targetPoint" />
          </mxGeometry>
        </mxCell>
        <mxCell id="NWTTXq0qykqu9VjmBLvM-39" value="&lt;ul&gt;&lt;li style=&quot;&quot;&gt;Visibility specification (roles)&lt;/li&gt;&lt;li style=&quot;&quot;&gt;Chunking and chunk context extension (also chunk URL generation if necessary)&lt;/li&gt;&lt;li style=&quot;&quot;&gt;Data type specifc extractions (e.g. picture descriptions, reasoning rules)&lt;/li&gt;&lt;/ul&gt;" style="rounded=1;whiteSpace=wrap;html=1;labelPosition=center;verticalLabelPosition=middle;align=left;verticalAlign=middle;" parent="1" vertex="1">
          <mxGeometry x="681.63" y="150" width="260" height="120" as="geometry" />
        </mxCell>
        <mxCell id="3raMY_A4haIPUJtshwJw-4" style="edgeStyle=orthogonalEdgeStyle;rounded=0;orthogonalLoop=1;jettySize=auto;html=1;" parent="1" source="NWTTXq0qykqu9VjmBLvM-45" target="3raMY_A4haIPUJtshwJw-3" edge="1">
          <mxGeometry relative="1" as="geometry" />
        </mxCell>
        <mxCell id="NWTTXq0qykqu9VjmBLvM-45" value="6.&lt;br&gt;Storage in DBs" style="ellipse;whiteSpace=wrap;html=1;aspect=fixed;" parent="1" vertex="1">
          <mxGeometry x="348" y="690" width="105" height="105" as="geometry" />
        </mxCell>
        <mxCell id="NWTTXq0qykqu9VjmBLvM-46" style="edgeStyle=orthogonalEdgeStyle;rounded=0;orthogonalLoop=1;jettySize=auto;html=1;" parent="1" source="NWTTXq0qykqu9VjmBLvM-47" target="NWTTXq0qykqu9VjmBLvM-45" edge="1">
          <mxGeometry relative="1" as="geometry">
            <Array as="points">
              <mxPoint x="620" y="743" />
              <mxPoint x="620" y="743" />
            </Array>
          </mxGeometry>
        </mxCell>
        <mxCell id="NWTTXq0qykqu9VjmBLvM-47" value="&lt;ul&gt;&lt;li&gt;Storage in Vector DBs and other DBs&lt;/li&gt;&lt;/ul&gt;" style="rounded=1;whiteSpace=wrap;html=1;labelPosition=center;verticalLabelPosition=middle;align=left;verticalAlign=middle;" parent="1" vertex="1">
          <mxGeometry x="675.63" y="727.5" width="270" height="30" as="geometry" />
        </mxCell>
        <mxCell id="NWTTXq0qykqu9VjmBLvM-53" style="edgeStyle=orthogonalEdgeStyle;rounded=0;orthogonalLoop=1;jettySize=auto;html=1;entryX=0.455;entryY=-0.013;entryDx=0;entryDy=0;entryPerimeter=0;movable=0;resizable=0;rotatable=0;deletable=0;editable=0;locked=1;connectable=0;" parent="1" source="NWTTXq0qykqu9VjmBLvM-12" target="NWTTXq0qykqu9VjmBLvM-56" edge="1">
          <mxGeometry relative="1" as="geometry" />
        </mxCell>
        <mxCell id="NWTTXq0qykqu9VjmBLvM-54" value="" style="group" parent="1" vertex="1" connectable="0">
          <mxGeometry x="280" y="580" width="250" height="60" as="geometry" />
        </mxCell>
        <mxCell id="NWTTXq0qykqu9VjmBLvM-55" value="Queries decontextualized" style="shape=document;whiteSpace=wrap;html=1;boundedLbl=1;movable=1;resizable=1;rotatable=1;deletable=1;editable=1;locked=0;connectable=1;" parent="NWTTXq0qykqu9VjmBLvM-54" vertex="1">
          <mxGeometry y="10" width="240" height="40" as="geometry" />
        </mxCell>
        <mxCell id="NWTTXq0qykqu9VjmBLvM-56" value="5. Storage ready data chunks" style="shape=document;whiteSpace=wrap;html=1;boundedLbl=1;movable=1;resizable=1;rotatable=1;deletable=1;editable=1;locked=0;connectable=1;" parent="NWTTXq0qykqu9VjmBLvM-54" vertex="1">
          <mxGeometry x="10" width="240" height="40" as="geometry" />
        </mxCell>
        <mxCell id="3raMY_A4haIPUJtshwJw-3" value="Data indexed" style="rounded=0;whiteSpace=wrap;html=1;fillColor=none;strokeColor=default;fontSize=12;" parent="1" tooltip="Receives HTTP POST to /ask endpoint in ask.py. Parses JSON query (e.g., &#39;Find vegetarian recipes for Diwali&#39;) and prev (e.g., &#39;What are some Indian festival recipes?&#39;). Loads site_type.xml for recipe_website context. No API calls, sequential." vertex="1">
          <mxGeometry x="280.5" y="840" width="240" height="60" as="geometry" />
        </mxCell>
      </root>
    </mxGraphModel>
  </diagram>
</mxfile>
